<?xml version="1.0" standalone="no"?>
<!DOCTYPE svg PUBLIC "-//W3C//DTD SVG 1.1//EN" "http://www.w3.org/Graphics/SVG/1.1/DTD/svg11.dtd" >
<svg xmlns="http://www.w3.org/2000/svg">
<metadata></metadata>
<defs>
<font id="AlexandriaFLFRegular" horiz-adv-x="1107" >
<font-face units-per-em="2048" ascent="1638" descent="-410" />
<missing-glyph horiz-adv-x="720" />
<glyph horiz-adv-x="0" />
<glyph horiz-adv-x="0" />
<glyph unicode="&#xd;" horiz-adv-x="0" />
<glyph unicode=" "  horiz-adv-x="720" />
<glyph unicode="&#x09;" horiz-adv-x="720" />
<glyph unicode="&#xa0;" horiz-adv-x="720" />
<glyph unicode="!" horiz-adv-x="360" d="M115 67q0 -32 20.5 -51.5t52 -19.5t53 19.5t21.5 51.5t-21.5 52t-53.5 20t-52 -20t-20 -52zM145 373h84v1089h-84v-1089z" />
<glyph unicode="&#x22;" horiz-adv-x="552" d="M125 1489l20 -328h43l21 328h-84zM354 1489l23 -328h41l20 328h-84z" />
<glyph unicode="#" horiz-adv-x="1054" d="M78 723h213l-64 -258h52l63 258h281l-66 -268h51l66 268h223l16 51h-227l57 234h211l17 49h-215l63 258h-49l-63 -258h-283l63 258h-51l-61 -258h-234l-16 -49h237l-59 -234h-209zM352 774l60 234h282l-59 -234h-283z" />
<glyph unicode="$" horiz-adv-x="991" d="M80 0h72v143q120 -153 340 -161v-107h83v115q164 23 263.5 133t99.5 285q0 324 -363 426v555q136 -10 248 -134v-106h74v295h-74v-76q-102 94 -248 102v107h-83v-109q-135 -13 -228 -102q-104 -100 -104 -242q0 -207 210 -298q60 -25 122 -44v-723q-174 6 -282 133 q-32 37 -58 78v136h-72v-406zM242 1120q0 55 20.5 101.5t53.5 82.5q69 72 176 85v-527q-125 42 -168 81.5t-62.5 80.5t-19.5 96zM575 68v686q127 -35 203 -120t76 -226t-77 -226t-202 -114z" />
<glyph unicode="%" horiz-adv-x="1718" d="M39 1057q0 -168 117 -284q120 -118 284 -118q166 0 284 118t118 283q0 83 -32 156.5t-86 127.5q-116 118 -284 118q-166 0 -283.5 -117.5t-117.5 -283.5zM117 1057q0 133 95 228t228 95q134 0 229 -95t95 -228q0 -134 -95 -229t-229 -95q-133 0 -228 95t-95 229zM371 0 h80l901 1462h-82zM887 365q0 -168 117 -284q120 -118 284 -118q166 0 284 118t118 283q0 83 -32 156.5t-86 127.5q-118 118 -284 118q-164 0 -284 -118q-117 -116 -117 -283zM965 365q0 133 95 228t228 95q134 0 229 -95t95 -228q0 -134 -95 -229t-229 -95q-133 0 -228 95 t-95 229z" />
<glyph unicode="&#x26;" horiz-adv-x="1378" d="M53 406q0 -181 111 -298q113 -118 309 -118q187 0 337 94q40 25 73 43l90 -127h110l-135 182q206 203 236 600h135v66h-350v-66h137q-8 -145 -57.5 -288.5t-141.5 -241.5l-456 682q-20 31 -37 55.5t-27 48.5q-22 54 -22 107t21.5 96t59.5 74q76 63 201 63q200 0 307 -67 v-146h80v203q-177 94 -387 94q-153 0 -259 -89q-107 -90 -107 -225t94 -261q-152 -109 -208 -181q-114 -145 -114 -300zM135 405q0 71 24.5 130t64.5 111q60 78 192 179l420 -628q-72 -47 -159 -85t-185.5 -38t-161 24.5t-105.5 68.5t-66.5 105.5t-23.5 132.5z" />
<glyph unicode="'" horiz-adv-x="335" d="M125 1462l20 -325h45l21 325h-86z" />
<glyph unicode="(" horiz-adv-x="417" d="M125 709q0 -423 121 -836h84q-119 413 -119 835.5t119 835.5h-84q-121 -412 -121 -835z" />
<glyph unicode=")" horiz-adv-x="417" d="M121 -127h84q121 412 121 832t-121 839h-84q119 -413 119 -835.5t-119 -835.5z" />
<glyph unicode="*" horiz-adv-x="438" d="M59 1161q0 -12 8.5 -21.5t20.5 -9.5t31.5 11.5t38 27t34.5 31.5l27 27q-31 -89 -31 -130.5t37 -41.5q31 0 31 39q0 69 -25 133q94 -94 131 -94q14 0 21.5 8t7.5 18q0 48 -151 82q89 20 120 42t31 38q0 31 -29 31q-39 0 -105 -70q-15 -16 -26 -27q27 67 27 121t-33 54 q-32 0 -32 -40q0 -75 26 -135q-10 10 -25.5 26.5t-33.5 32.5q-46 38 -73.5 38t-27.5 -33q0 -39 110 -69q26 -7 42 -9q-12 -4 -38 -10t-51 -17q-63 -27 -63 -53z" />
<glyph unicode="+" horiz-adv-x="679" d="M96 719h209v-209h84v209h209v84h-209v209h-84v-209h-209v-84z" />
<glyph unicode="," horiz-adv-x="333" d="M53 -193l27 -18l196 322l-71 30z" />
<glyph unicode="-" horiz-adv-x="632" d="M106 719h422v84h-422v-84z" />
<glyph unicode="." horiz-adv-x="333" d="M96 66q0 -31 21.5 -52.5t52.5 -21.5t52.5 21.5t21.5 52.5t-21.5 52t-52.5 21t-52.5 -21.5t-21.5 -51.5z" />
<glyph unicode="/" horiz-adv-x="647" d="M47 0h82l502 1462h-82z" />
<glyph unicode="0" d="M39 729q0 -310 127 -516q65 -104 162.5 -168.5t226.5 -64.5t226.5 64.5t162 169.5t97 239.5t32.5 276.5t-32.5 277.5t-97 240t-162 168t-226.5 63.5t-226.5 -63.5t-162.5 -167.5q-127 -207 -127 -519zM123 729q0 270 111 457q55 94 136 151.5t186 57.5t186 -57.5 t136 -151.5q111 -187 111 -457q0 -271 -111 -457q-123 -209 -323 -209q-104 0 -185 57.5t-136 151.5q-111 186 -111 457z" />
<glyph unicode="1" d="M399 0h334v74h-125v1386h-209v-74h125v-1312h-125v-74z" />
<glyph unicode="2" d="M131 0h873v84h-752l16 72q48 207 278 392q64 52 127.5 103t123 101.5t105.5 105.5q102 122 102 258q0 150 -108 248q-117 106 -318 106q-192 0 -308 -110q-95 -91 -123 -232h95q45 182 198 240q58 21 138 21q157 0 250 -78q92 -77 92 -195q0 -162 -182 -305 q-54 -43 -121.5 -94t-139 -109.5t-133.5 -123.5q-141 -148 -176 -312z" />
<glyph unicode="3" d="M104 309q17 -138 128 -227q120 -98 323 -98q179 0 301 97q139 112 139 312q0 158 -81 269q-68 91 -175 124q82 14 159 97q89 96 89 229q0 162 -117 264q-122 105 -315 105q-203 0 -321 -110q-94 -87 -113 -218h86q23 165 191 223q65 23 157 23q154 0 251 -75t97 -212 q0 -135 -101 -215q-85 -68 -208 -68h-127v-84h127q125 0 217 -92q100 -100 100 -260q0 -165 -119 -254q-96 -71 -248.5 -71t-243.5 68.5t-110 172.5h-86z" />
<glyph unicode="4" d="M84 356h719v-272h-84v-84h252v84h-82v272h129v82h-129v1045h-64l-741 -1069v-58zM201 438l602 862v-862h-602z" />
<glyph unicode="5" d="M59 289q56 -127 171 -212q131 -97 302 -97q227 0 374 155q145 152 145 363q0 230 -153 378q-148 142 -363 142q-135 0 -246 -57l90 411h461v-106h84v196h-609l-122 -579l75 -23q112 74 264 74q176 0 304 -121q131 -123 131 -315q0 -181 -123 -306q-127 -129 -312 -129 q-143 0 -252 80q-93 68 -145 181z" />
<glyph unicode="6" d="M66 586q0 -290 140 -456q135 -161 369 -161q221 0 359 149q131 141 131 363q0 208 -123 343q-134 147 -367 147q-222 0 -354 -137q-37 -39 -59 -78q43 438 308 575q99 51 225.5 51t215.5 -24l29 84q-79 24 -229 24t-273 -60t-206 -174q-166 -230 -166 -646zM152 509.5 q0 64.5 3 81.5t5 32q79 177 258 241q69 25 165 25t173.5 -36t127.5 -95q99 -115 99 -277q0 -185 -107 -308q-116 -132 -301 -132q-184 0 -309 155q-55 70 -84.5 159.5t-29.5 154z" />
<glyph unicode="7" d="M78 1239h84v141h786q-109 -109 -208 -233.5t-174 -280.5q-165 -345 -165 -782h-116v-84h313v84h-113q0 599 339 1034q106 137 239 273v71h-985v-223z" />
<glyph unicode="8" d="M96 401q0 -166 120 -287q128 -130 337 -130q211 0 339 130q118 119 118 287q0 158 -114 272q-86 86 -196 113q103 22 182 94q105 95 105 235q0 79 -30.5 145.5t-86.5 115.5q-122 105 -317 105t-317 -105q-117 -102 -117 -260q0 -140 99 -234q76 -73 177 -96 q-110 -32 -191 -117q-108 -113 -108 -268zM193 397q0 135 90 227q101 103 270 103q171 0 272 -103q90 -92 90 -227q0 -134 -90 -226q-101 -103 -272 -103q-169 0 -270 103q-90 92 -90 226zM205 1118q0 116 87 193q99 88 261 88q164 0 263 -88q87 -77 87 -194 q0 -52 -21.5 -102t-65.5 -89q-99 -88 -263 -88q-162 0 -261 88q-87 77 -87 192z" />
<glyph unicode="9" d="M74 973q0 -208 122 -343q135 -147 367 -147q222 0 355 137q36 37 59 78q-43 -439 -309 -575q-99 -51 -225.5 -51t-215.5 24l-28 -84q79 -24 229 -24t272.5 60.5t205.5 173.5q167 229 167 646q0 289 -141 456q-135 161 -369 161q-221 0 -359 -149q-130 -140 -130 -363z M156 973q0 185 107 308q114 132 300 132q185 0 309 -155q56 -70 85.5 -159.5t29.5 -154t-3 -81.5t-5 -32q-75 -175 -259 -241q-69 -25 -165 -25t-173 36t-127 95q-99 115 -99 277z" />
<glyph unicode=":" horiz-adv-x="333" d="M96 66q0 -31 21.5 -52.5t52.5 -21.5t52.5 21.5t21.5 52.5t-21.5 52t-52.5 21t-52.5 -21.5t-21.5 -51.5zM96 897q0 -31 21.5 -52.5t52.5 -21.5t52.5 21.5t21.5 52.5t-21.5 52.5t-52.5 21.5t-52.5 -21.5t-21.5 -52.5z" />
<glyph unicode=";" horiz-adv-x="417" d="M84 -193l27 -18l196 322l-71 30zM139 897q0 -31 21.5 -52.5t52.5 -21.5t52.5 21.5t21.5 52.5t-21.5 52.5t-52.5 21.5t-52.5 -21.5t-21.5 -52.5z" />
<glyph unicode="&#x3c;" horiz-adv-x="577" d="M61 760l404 -318l47 52l-340 266l346 272l-47 51z" />
<glyph unicode="=" horiz-adv-x="606" d="M76 594h463v84h-463v-84zM76 844h463v84h-463v-84z" />
<glyph unicode="&#x3e;" horiz-adv-x="577" d="M68 1032l346 -272l-340 -266l47 -52l403 318l-409 323z" />
<glyph unicode="?" horiz-adv-x="894" d="M61 1212l78 -36q55 153 187 204q53 21 120 21q152 0 238 -88t86 -236q0 -273 -232 -335q-73 -19 -163 -21v-348h84v276q270 21 360 237q33 79 33 181t-28.5 177t-81.5 128q-109 111 -296 111q-157 0 -263 -90q-71 -60 -122 -181zM342 66q0 -31 21.5 -52.5t52.5 -21.5 t52 21.5t21 52.5t-21.5 52t-51.5 21q-31 0 -52.5 -21.5t-21.5 -51.5z" />
<glyph unicode="@" horiz-adv-x="1220" d="M76 817q0 -215 132 -361q147 -163 402 -163q114 0 194 29q134 47 169 94l-29 30q-31 -40 -104 -67q-120 -45 -235.5 -45t-208.5 42t-156 110q-123 133 -123 331q0 190 133 329q143 150 362 150q220 0 362 -142q134 -134 134 -312q0 -92 -30 -154q-57 -117 -144 -117 q-82 0 -93 97q-3 26 -3 53l26 326h-39l-10 -132q-46 144 -215 144q-129 0 -205 -83q-71 -77 -71 -191t56 -185.5t179 -71.5q107 0 175 58q39 34 67 96q0 -59 26.5 -106.5t95.5 -47.5t111.5 31t67.5 78q47 86 47 191.5t-37 193.5t-106 158q-155 157 -394 157 q-238 0 -392 -163q-144 -152 -144 -357zM367 791.5q0 91.5 63.5 159t159.5 67.5t148.5 -59t52.5 -150.5t-59.5 -164.5t-167 -73t-152.5 64.5t-45 156z" />
<glyph unicode="A" horiz-adv-x="1492" d="M68 0h374v86h-137l127 363h658l129 -363h-140v-86h355v86h-115l-463 1290h115v86h-426v-86h114l-462 -1290h-129v-86zM463 535l295 835l303 -835h-598z" />
<glyph unicode="B" horiz-adv-x="1155" d="M41 0h614q215 0 339 108.5t124 309.5q0 152 -91 258q-83 96 -208 131q92 35 144.5 111.5t52.5 170t-23.5 157t-70.5 111.5q-104 105 -283 105h-598v-86h158v-1290h-158v-86zM297 86v672h360q152 0 255 -91q108 -96 108 -249q0 -160 -108 -250q-99 -82 -255 -82h-360z M297 844v532h348q129 0 201 -74.5t72 -189.5q0 -116 -74 -192q-75 -76 -187 -76h-360z" />
<glyph unicode="C" horiz-adv-x="1439" d="M78 729q0 -158 57.5 -295t158.5 -238.5t238.5 -158.5t294.5 -57q333 0 527 221v125q-216 -248 -527 -248q-279 0 -465 185q-186 184 -186 466t186 466q186 185 465 185q152 0 258.5 -50t186.5 -118v-129h98v363h-98v-113q-120 97 -300 133q-67 13 -145 13 q-158 0 -295 -57.5t-238 -159t-158.5 -238.5t-57.5 -295z" />
<glyph unicode="D" horiz-adv-x="1378" d="M57 0h613q133 0 256 50t218 145.5t152.5 231.5t57.5 305t-56.5 304t-149.5 229.5t-216 145.5t-258 51h-617v-86h156v-1290h-156v-86zM311 86v1290h353q243 0 415 -180q176 -185 176 -463t-178 -465q-82 -86 -189.5 -134t-223.5 -48h-353z" />
<glyph unicode="E" horiz-adv-x="993" d="M55 0h858v246h-86v-160h-518v684h387v-104h86v295h-86v-105h-387v520h518v-153h86v239h-858v-86h156v-1290h-156v-86z" />
<glyph unicode="F" horiz-adv-x="993" d="M68 0h411v86h-157v694h380v-104h86v295h-86v-105h-380v510h518v-153h86v239h-858v-86h155v-1290h-155v-86z" />
<glyph unicode="G" horiz-adv-x="1640" d="M72 728q0 -155 56 -292t154.5 -238.5t233.5 -159.5t278.5 -58t238.5 30.5t161 75.5q109 74 162 195v-281h98v623h156v86h-776v-86h528q-26 -261 -146 -391q-140 -154 -407 -154q-273 0 -457 188q-182 186 -182 463t182 463q184 188 455.5 188t480.5 -190v-133h98v381h-98 v-121q-114 107 -322 147q-73 15 -157 15q-154 0 -288 -59.5t-234.5 -162t-157.5 -238.5t-57 -291z" />
<glyph unicode="H" horiz-adv-x="1404" d="M68 0h411v86h-157v688h774v-688h-158v-86h412v86h-156v1290h156v86h-412v-86h158v-516h-774v516h157v86h-411v-86h155v-1290h-155v-86z" />
<glyph unicode="I" horiz-adv-x="618" d="M115 0h397v86h-150v1290h150v86h-397v-86h149v-1290h-149v-86z" />
<glyph unicode="J" horiz-adv-x="690" d="M92 -59q73 -82 193.5 -82t181.5 74.5t61 252.5v1190h119v86h-354v-86h137v-1190q0 -135 -35 -182t-112.5 -47t-122.5 55z" />
<glyph unicode="K" horiz-adv-x="1097" d="M70 0h307v86h-105v625l31 30l541 -655h-109v-86h340v86h-106l-594 723l567 567h107v86h-334v-86h102l-545 -545v545h105v86h-307v-86h104v-1290h-104v-86z" />
<glyph unicode="L" horiz-adv-x="897" d="M68 0h770v211h-99v-125h-448v1290h119v86h-334v-86h117v-1290h-125v-86z" />
<glyph unicode="M" horiz-adv-x="1828" d="M61 0h369v86h-135v1196l627 -1311l626 1311v-1196h-135v-86h369v86h-135v1290h135v88h-248l-612 -1278l-613 1276h-248v-86h136v-1290h-136v-86z" />
<glyph unicode="N" horiz-adv-x="1536" d="M51 0h348v86h-125v1163l1059 -1253h49v1380h127v86h-352v-86h127v-1163l-1051 1249h-182v-86h125v-1290h-125v-86z" />
<glyph unicode="O" horiz-adv-x="1646" d="M78 729q0 -156 59.5 -292t160.5 -237.5t237 -160.5t292 -59t292 59t238.5 160.5t162 237.5t59.5 292t-59.5 292t-162 237.5t-238.5 161t-292 59.5t-292 -59.5t-237 -161t-160.5 -237.5t-59.5 -292zM176 730q0 134 51.5 252t140.5 207t207.5 140t252.5 51t253 -51 t208 -140q192 -192 192 -460q0 -133 -51.5 -252t-140.5 -208t-208 -140t-253 -51t-252.5 51t-207.5 140t-140.5 208t-51.5 253z" />
<glyph unicode="P" horiz-adv-x="993" d="M39 0h369v86h-136v584h273q184 0 290.5 105.5t106.5 287t-107 290.5t-290 109h-506v-86h135v-1290h-135v-86zM272 756v620h273q133 0 216 -82t83 -234.5t-83 -228t-216 -75.5h-273z" />
<glyph unicode="Q" horiz-adv-x="1660" d="M76 732q0 -153 57 -289t157.5 -238.5t239 -163.5t297.5 -61q-72 0 -155.5 -11.5t-171.5 -64.5v-86q143 78 315 78q101 0 207 -54q116 -57 210.5 -57t142.5 12.5t100 30.5v90q-99 -43 -195.5 -43t-142 13.5t-83.5 31.5q-111 52 -171 64q133 8 259 67.5t223 158.5 t156.5 231t59.5 288t-59.5 292t-162 237.5t-239.5 161t-293 59.5t-292 -59.5t-238 -161t-161.5 -237.5t-59.5 -289zM176 730q0 134 51.5 252t140.5 207t207.5 140t252.5 51t253 -51t208 -140q192 -192 192 -460q0 -133 -51.5 -252t-140.5 -208t-208 -140t-253 -51t-252.5 51 t-207.5 140t-140.5 208t-51.5 253z" />
<glyph unicode="R" horiz-adv-x="1124" d="M45 0h387v86h-145v571h37l528 -657h213v86h-158l-461 571h115q178 0 292 118q110 114 110 285q0 85 -29 158.5t-81 127.5q-110 116 -292 116h-516v-86h145v-1290h-145v-86zM289 743v633h280q125 0 210 -89t85 -226q0 -68 -21.5 -125t-61.5 -100q-87 -93 -212 -93h-280z " />
<glyph unicode="S" horiz-adv-x="983" d="M80 0h86v143q45 -59 130 -109t196.5 -50t192.5 32.5t137 89.5q116 115 116 304q0 256 -253 376q-75 35 -146.5 59.5t-121.5 48.5t-85 54q-74 65 -74 179t80 179.5t191.5 65.5t179 -43t102.5 -96v-100h86v311h-86v-76q-102 102 -276 102q-154 0 -263 -97 q-112 -100 -112 -249q0 -155 94 -241q71 -65 235 -125q182 -67 238.5 -113.5t84.5 -101t28 -132t-26 -138t-72 -103.5q-94 -88 -238 -88q-175 0 -287 141q-31 39 -51 78v119h-86v-420z" />
<glyph unicode="T" horiz-adv-x="1064" d="M76 1223h86v153h323v-1290h-157v-86h411v86h-155v1290h319v-153h86v239h-913v-239z" />
<glyph unicode="U" horiz-adv-x="1185" d="M43 1378h127v-1005q0 -184 133 -292q117 -95 291 -95q170 0 290 95q134 107 134 292v1005h125v84h-348v-84h125v-1013q0 -139 -106 -217q-89 -64 -220 -64q-211 0 -296 152q-30 53 -30 129v1013h127v84h-352v-84z" />
<glyph unicode="V" horiz-adv-x="1173" d="M37 1376h108l445 -1429l444 1429h107v86h-328v-86h123l-346 -1136l-346 1136h121v86h-328v-86z" />
<glyph unicode="W" horiz-adv-x="2007" d="M49 1376h141l443 -1429l368 1241l369 -1241l438 1429h154v86h-395v-86h143l-340 -1136l-369 1243l-368 -1245l-344 1138h143v86h-383v-86z" />
<glyph unicode="X" horiz-adv-x="1204" d="M59 0h328v86h-108l323 569l326 -569h-109v-86h328v86h-121l-377 651l355 639h112v86h-307v-86h96l-305 -555l-299 555h96v86h-307v-86h113l348 -637l-371 -653h-121v-86z" />
<glyph unicode="Y" horiz-adv-x="1165" d="M61 1376h113l361 -635v-655h-115v-86h328v86h-115v655l360 635h117v86h-309v-86h94l-311 -555l-312 555h97v86h-308v-86z" />
<glyph unicode="Z" horiz-adv-x="1118" d="M49 0h993v285h-86v-199h-739l825 1376h-942v-264h86v178h699z" />
<glyph unicode="[" horiz-adv-x="438" d="M121 -98h227v71l-143 2v1500h137v73h-221v-1646z" />
<glyph unicode="\" horiz-adv-x="575" d="M47 1462l420 -1462h80l-418 1462h-82z" />
<glyph unicode="]" horiz-adv-x="438" d="M125 -27v-71h227v1646h-221v-73h139v-1500z" />
<glyph unicode="^" horiz-adv-x="720" d="M104 920l60 -23l203 504l204 -510l56 29l-230 585h-63z" />
<glyph unicode="_" horiz-adv-x="731" d="M2 -74v-71h752v71h-752z" />
<glyph unicode="`" horiz-adv-x="542" d="M119 1491l258 -256l57 59l-254 256z" />
<glyph unicode="a" horiz-adv-x="1159" d="M90 367q0 -158 106 -267q115 -120 310 -120q217 0 328 110q30 29 51 53v-143h233v74h-151v641q0 165 -118 268q-110 96 -290 96q-98 0 -192.5 -32.5t-155.5 -94.5l49 -67q47 47 127 78.5t155.5 31.5t134 -18.5t104.5 -54.5q104 -83 104 -226v-116q-82 117 -243 158 q-58 14 -144 14t-165 -32t-133 -85q-110 -109 -110 -268zM174 366q0 56 20.5 110t62.5 97q95 97 253 97q172 0 269 -95q89 -87 89 -208q0 -122 -89 -209q-97 -95 -269 -95q-158 0 -251 95q-85 87 -85 208z" />
<glyph unicode="b" horiz-adv-x="1216" d="M74 0h209v205q79 -154 243 -207q64 -21 165.5 -21t190.5 47.5t146 125.5q115 156 115 382q0 225 -115 382q-126 171 -354 171q-147 0 -257 -77q-86 -60 -134 -162v690h-209v-74h125v-1388h-125v-74zM283 532q0 192 97 324q106 145 294 145q181 0 288 -145 q97 -131 97 -324q0 -195 -95 -324q-110 -147 -290 -147q-183 0 -293 147q-98 132 -98 324z" />
<glyph unicode="c" horiz-adv-x="985" d="M59 524q0 -233 135 -388q147 -167 402 -167q169 0 258 63q25 17 45 34v108q-62 -57 -106 -79q-86 -42 -198 -42t-197 39t-142 104q-115 130 -115 328q0 197 115 330q124 143 353 143q126 0 216 -49v-96h74v246h-74v-54q-95 37 -226.5 37t-232 -46t-168.5 -123 q-139 -154 -139 -388z" />
<glyph unicode="d" horiz-adv-x="1232" d="M88 532q0 -228 114 -382q128 -173 355 -173q274 0 391 228v-205h209v74h-125v1462h-233v-74h149v-616q-74 159 -246 218q-63 21 -164.5 21t-189.5 -47t-146 -124q-114 -155 -114 -382zM172 532q0 191 97 326q106 146 288 146q188 0 294 -146q97 -135 97 -326 q0 -192 -98 -324q-110 -147 -293 -147q-182 0 -290 147q-95 130 -95 324z" />
<glyph unicode="e" horiz-adv-x="1153" d="M80 528q0 -230 122 -384q137 -173 371 -173q257 0 387 157q37 44 66 89l-72 47q-64 -99 -119 -135.5t-116.5 -55t-149.5 -18.5t-161.5 36t-125.5 97q-108 126 -108 330h893q2 14 2 29v35q0 195 -133 342q-143 159 -363 159q-214 0 -355 -161q-138 -156 -138 -394z M182 592q4 163 108 282q108 125 283 125t288 -121q108 -114 116 -286h-795z" />
<glyph unicode="f" horiz-adv-x="542" d="M53 0h334v74h-125v909h201v72h-201v252q0 125 103 125q54 0 122 -31v82q-23 10 -52 21.5t-97 11.5t-114 -51.5t-46 -137.5v-272h-115v-72h115v-909h-125v-74z" />
<glyph unicode="g" horiz-adv-x="1216" d="M88 532q0 -229 121 -386q59 -76 146 -122.5t185.5 -46.5t163 20.5t111.5 53.5q84 59 133 154v-185q0 -154 -89 -243.5t-236 -89.5q-92 0 -149.5 21.5t-100.5 43.5l-39 -76q53 -29 119.5 -51t159 -22t167 27.5t130.5 80.5q122 114 122 307v965h125v72h-209v-209 q-74 159 -246 218q-63 21 -161.5 21t-185.5 -46t-146 -123q-121 -156 -121 -384zM172 532q0 194 97 326q107 146 288 146q188 0 294 -146q97 -135 97 -326q0 -192 -98 -324q-110 -147 -293 -147q-181 0 -288 145q-97 133 -97 326z" />
<glyph unicode="h" horiz-adv-x="1118" d="M74 0h334v74h-125v694q0 23 16 62.5t52 77.5q88 93 216.5 93t207.5 -66.5t79 -225.5v-635h-125v-74h334v74h-127v667q0 165 -110 258q-101 86 -257 86q-192 0 -286 -135v586h-209v-74h125v-1388h-125v-74z" />
<glyph unicode="i" horiz-adv-x="522" d="M96 0h334v74h-125v981h-209v-72h125v-909h-125v-74zM199 1350q0 -29 18.5 -47.5t46.5 -18.5q29 0 47.5 18.5t18.5 47.5t-18.5 47t-47.5 18t-47 -18.5t-18 -46.5z" />
<glyph unicode="j" horiz-adv-x="450" d="M45 -221l43 -74q103 48 143 92q78 86 78 205v1053h-211v-72h127v-981q0 -88 -49 -137t-131 -86zM203 1350q0 -29 18.5 -47.5t46.5 -18.5q29 0 47.5 18.5t18.5 47.5t-18.5 47t-47.5 18t-47 -18.5t-18 -46.5z" />
<glyph unicode="k" horiz-adv-x="1079" d="M94 0h334v74h-125v426l33 30l457 -456h-138v-74h357v74h-111l-502 508l402 401h143v72h-420v-72h166l-387 -387v940h-209v-74h125v-1388h-125v-74z" />
<glyph unicode="l" horiz-adv-x="464" d="M68 0h333v74h-125v1462h-208v-74h125v-1388h-125v-74z" />
<glyph unicode="m" horiz-adv-x="1484" d="M61 0h334v74h-125v725q0 88 71 145q65 51 159 51q85 0 145 -51q64 -54 64 -141v-729h-125v-74h334v74h-125v727q0 87 70 143q65 51 158 51t151.5 -51t58.5 -141v-729h-125v-74h334v74h-125v729q0 118 -79 195q-82 81 -212 81q-161 0 -240 -99q-20 -26 -32 -46 q-32 64 -68 90q-77 55 -184 55q-154 0 -230 -108v84h-209v-72h125v-909h-125v-74z" />
<glyph unicode="n" horiz-adv-x="1148" d="M94 0h334v74h-125v702q0 23 18.5 60.5t54.5 74.5q88 90 214 90q199 0 264 -157q23 -56 23 -135v-635h-127v-74h337v74h-129v667q0 164 -109 258q-100 86 -259 86q-155 0 -248 -91q-25 -25 -39 -46v107h-209v-72h125v-909h-125v-74z" />
<glyph unicode="o" horiz-adv-x="1146" d="M74 530q0 -227 128 -382q64 -76 158.5 -123.5t214.5 -47.5q228 0 373 171q129 154 129 382t-129 384q-143 171 -373 171q-232 0 -373 -171q-128 -157 -128 -384zM158 530q0 190 103 323q115 148 314 148q198 0 313 -148q105 -135 105 -323t-105 -322q-115 -147 -313 -147 q-199 0 -314 147q-103 131 -103 322z" />
<glyph unicode="p" horiz-adv-x="1189" d="M57 -295v-74h334v74h-125v500q79 -154 244 -207q63 -21 164.5 -21t189.5 47.5t146 125.5q116 153 116 382q0 228 -116 382q-58 77 -146 124t-188.5 47t-163.5 -20.5t-112 -54.5q-84 -58 -134 -160v205h-209v-72h125v-1278h-125zM266 532q0 197 92 324q105 145 289 145 t294 -145q101 -132 101 -324q0 -194 -95 -324q-108 -147 -292 -147q-179 0 -291 147q-98 131 -98 324z" />
<glyph unicode="q" horiz-adv-x="1232" d="M100 532q0 -228 116 -382q129 -173 355 -173q267 0 390 228v-574h227v84h-144v1268h125v72h-208v-209q-74 158 -255 218q-65 21 -165.5 21t-187.5 -47t-143 -124q-110 -153 -110 -382zM184 532q0 193 98 324q106 145 289 145q186 0 292 -145q98 -133 98 -324t-99 -324 q-110 -147 -291 -147q-182 0 -291 147q-96 129 -96 324z" />
<glyph unicode="r" horiz-adv-x="684" d="M72 0h334v74h-125v712q0 84 53 140q56 57 135.5 57t132.5 -51l47 67q-71 66 -165.5 66t-136.5 -34t-66 -75v99h-209v-72h125v-909h-125v-74z" />
<glyph unicode="s" horiz-adv-x="790" d="M63 0h72v74q107 -86 268 -86q146 0 244 78q103 83 103 225q0 189 -210 269q-65 24 -161.5 49.5t-150.5 70.5t-54 136t65.5 142.5t163.5 51.5q139 0 254 -105v-78h74v244h-74v-70q-94 84 -254 84q-137 0 -225 -77q-88 -76 -88 -193q0 -179 182 -258q58 -25 123 -41 t114.5 -33.5t84.5 -42.5q74 -54 74 -154.5t-74 -157t-208.5 -56.5t-250.5 102v105h-72v-279z" />
<glyph unicode="t" horiz-adv-x="555" d="M61 983h115v-821q0 -86 43 -138.5t121.5 -52.5t144.5 33v84q-63 -35 -123 -35q-102 0 -102 119v811h199v72h-199v319h-84v-319h-115v-72z" />
<glyph unicode="u" horiz-adv-x="1148" d="M86 983h125v-655q0 -172 95 -262.5t278.5 -90.5t281.5 136v-111h209v74h-125v981h-209v-72h125v-711q0 -14 -17.5 -49t-52.5 -71q-90 -93 -217.5 -93t-205.5 63.5t-78 223.5v709h-209v-72z" />
<glyph unicode="v" horiz-adv-x="956" d="M57 983h82l332 -983h39l311 983h84v72h-262v-72h94l-239 -776h-11l-264 776h94v72h-260v-72z" />
<glyph unicode="w" horiz-adv-x="1499" d="M57 983h82l332 -983h25l258 844l268 -844h27l311 983h84v72h-260v-72h92l-240 -776l-270 848h-23l-256 -848l-264 776h94v72h-260v-72z" />
<glyph unicode="x" horiz-adv-x="927" d="M53 983h103l266 -471l-258 -438h-109v-74h301v74h-108l217 377l229 -377h-116v-74h303v74h-95l-280 446l282 463h97v72h-293v-72h110l-233 -395l-229 395h104v72h-291v-72z" />
<glyph unicode="y" horiz-adv-x="1157" d="M70 983h129l350 -864l-180 -461h-136v-74h353v74h-131l526 1325h109v72h-316v-72h119l-295 -752l-305 752h131v72h-354v-72z" />
<glyph unicode="z" horiz-adv-x="888" d="M45 0h774v246h-84v-172h-536l620 981h-737v-254h84v182h512z" />
<glyph unicode="{" horiz-adv-x="376" d="M16 727q31 -35 62 -77t31 -107v-412q0 -127 57 -183.5t199 -51.5v63q-106 0 -135 27.5t-37.5 61.5t-8.5 87v408q0 100 -84 184q35 33 59.5 74.5t24.5 109.5v375q0 107 36 146q33 34 142 34v70q-140 0 -196 -52q-57 -52 -57 -198v-375q0 -63 -31 -106t-62 -78z" />
<glyph unicode="|" horiz-adv-x="272" d="M111 -94h71v1640h-71v-1640z" />
<glyph unicode="}" horiz-adv-x="376" d="M29 -41v-63q141 -4 198.5 52t57.5 183v412q0 66 30.5 107.5t61.5 76.5q-31 35 -61.5 78t-30.5 106v375q0 145 -57 198q-56 52 -197 52v-70q110 0 143 -34q35 -38 35 -146v-375q0 -68 24.5 -109.5t59.5 -74.5q-84 -84 -84 -184v-408q0 -106 -37 -141t-143 -35z" />
<glyph unicode="~" horiz-adv-x="991" d="M119 764l55 -51q25 23 55.5 46t88 23t95.5 -15t81 -36q96 -47 178 -47q131 0 223 92l-53 53q-75 -65 -174 -65q-65 0 -160 49q-41 18 -83 33.5t-110.5 15.5t-119.5 -33.5t-76 -64.5z" />
<glyph unicode="&#xa1;" horiz-adv-x="292" d="M78 1244q0 -32 21.5 -52.5t53.5 -20.5t52 20.5t20 52.5t-20.5 51.5t-52 19.5t-53 -19.5t-21.5 -51.5zM111 -152h84v1090h-84v-1090z" />
<glyph unicode="&#xa2;" horiz-adv-x="964" d="M53 719q0 -215 123 -369q126 -156 346 -184v-123h86v123q188 0 291 94v100q-104 -112 -291 -112v944q112 0 217 -49v-96h74v245h-74v-55q-95 37 -217 37v123h-86v-127q-219 -23 -348 -186q-121 -152 -121 -365zM141 719q0 177 106 311q107 136 275 156v-938 q-180 35 -284 168q-97 126 -97 303z" />
<glyph unicode="&#xa3;" horiz-adv-x="899" d="M37 55l55 -57q41 45 79 67.5t99 22.5q95 0 174 -51q75 -49 170 -49q162 0 267 110l-60 58q-33 -35 -88 -61.5t-111 -26.5q-78 0 -153 47q-85 46 -127 51q147 139 147 348h230v74h-234q-16 82 -71.5 156.5t-102.5 144t-75.5 136t-28.5 144.5q0 117 68.5 169.5t183.5 52.5 t189.5 -56.5t92.5 -156.5h84q-23 151 -133 227q-99 68 -243 68q-147 0 -241 -87q-93 -85 -93 -217q0 -96 37.5 -173.5t87 -149.5t96.5 -134.5t61 -123.5h-213v-74h224q0 -78 -45.5 -171t-129.5 -177q-114 -9 -196 -111z" />
<glyph unicode="&#xa4;" horiz-adv-x="993" d="M53 0h334v74h-125v909h197v72h-197v219q0 78 51.5 121t130.5 43q72 0 130 -42q59 -44 59 -91v-250h-115v-72h115v-909h-125v-74h334v74h-125v909h201v72h-201v252q0 78 33.5 105.5t91.5 27.5t100 -19v84q-44 19 -104 19q-141 0 -185 -105q-63 101 -209 101 q-108 0 -186 -63q-80 -65 -80 -171v-231h-115v-72h115v-909h-125v-74z" />
<glyph unicode="&#xa5;" horiz-adv-x="1138" d="M66 1391h104l371 -650h-209v-71h209v-127h-209v-72h209v-397h-115v-74h313v74h-114v397h206v72h-206v127h206v71h-206l385 650h104v71h-299v-71h105l-332 -570l-330 570h104v71h-296v-71z" />
<glyph unicode="&#xa6;" horiz-adv-x="272" d="M111 0h71v616h-71v-616zM111 930h71v616h-71v-616z" />
<glyph unicode="&#xa7;" horiz-adv-x="784" d="M76 707q0 -132 91 -215q82 -76 204 -91q100 -11 157 -85q52 -65 52 -146.5t-51.5 -135.5t-147.5 -54q-153 0 -209 157l-76 -35q29 -84 99.5 -143t192.5 -59t203 71.5t81 192.5q0 181 -140 266q84 45 116 91q61 87 61 174.5t-25 143.5t-67 97q-86 84 -224 104 q-92 14 -140 66.5t-48 132.5q0 109 99 157q34 17 77 17q126 0 201 -135l61 41q-83 172 -262 172q-120 0 -193 -79q-69 -74 -69 -177q0 -132 93 -201q26 -20 52 -35q-74 -31 -111 -76q-77 -94 -77 -216zM170 708q0 44 11.5 81.5t36.5 69.5q59 73 171.5 73t169.5 -64.5 t57 -158.5t-58 -150.5t-165 -56.5q-144 0 -203 122q-20 40 -20 84z" />
<glyph unicode="&#xa8;" horiz-adv-x="647" d="M113 1350q0 -29 18.5 -47.5t46.5 -18.5q29 0 47.5 18.5t18.5 47.5t-18.5 47t-47.5 18t-47 -18.5t-18 -46.5zM395 1350q0 -29 18.5 -47.5t47.5 -18.5t47 18.5t18 47.5t-18.5 47t-46.5 18q-29 0 -47.5 -18.5t-18.5 -46.5z" />
<glyph unicode="&#xa9;" horiz-adv-x="1204" d="M70 797q0 -224 157.5 -381.5t380.5 -157.5q222 0 381 158q158 156 158 381q0 224 -158 381q-159 157 -381 157q-223 0 -380.5 -157.5t-157.5 -380.5zM113 799q0 207 145 352t352 145q209 0 352 -145q146 -147 146 -352q0 -207 -145.5 -352.5t-352.5 -145.5 q-205 0 -352 145q-145 144 -145 353zM342 807q0 -101 66 -170q75 -78 196 -78t199 72v49q-35 -35 -79 -57.5t-107.5 -22.5t-106.5 17.5t-70 46.5q-57 61 -57 143q0 83 57 141q61 64 166 64t197 -70v49q-31 20 -76 41t-116 21t-120 -21.5t-83 -55.5q-66 -67 -66 -169z" />
<glyph unicode="&#xaa;" horiz-adv-x="825" d="M88 586h688v51h-688v-51zM131 1000q0 -44 16.5 -86t46.5 -74q68 -72 199 -72t215 98v-86h140v45h-91v383q0 104 -69.5 161.5t-173.5 57.5q-134 0 -209 -75l28 -41q65 65 181 65q126 0 176 -99q18 -34 18 -79v-70q-77 103 -225 103q-174 0 -235 -145q-17 -42 -17 -86z M182 1000q0 71 51.5 126.5t152 55.5t156.5 -54t56 -129q0 -72 -54 -123q-58 -57 -159.5 -57t-152 55t-50.5 126z" />
<glyph unicode="&#xab;" horiz-adv-x="899" d="M76 526l381 -383l37 37l-349 346l351 351l-37 34zM389 526l383 -383l35 37l-348 346l350 351l-35 34z" />
<glyph unicode="&#xac;" horiz-adv-x="565" d="M45 760h477v41h-477v-41zM82 178q0 -37 13.5 -70.5t40.5 -60.5q57 -59 151 -59t151 59q54 55 54 129q0 69 -52 122q-41 40 -88 50q80 20 115 86q14 27 14 64q0 70 -52 117t-142 47t-142.5 -47.5t-52.5 -116.5q0 -61 46 -106q32 -33 77 -44q-81 -27 -119 -104 q-14 -29 -14 -66zM125 173q0 56 40 102.5t122 46.5t123 -46.5t41 -102.5t-41 -102t-123 -46t-122 46t-40 102zM131 498q0 47 39 87t117 40t117.5 -40t39.5 -87t-39.5 -87t-117.5 -40t-117 40t-39 87zM209 885h149v33h-57v624h-92v-35h55v-589h-55v-33z" />
<glyph unicode="&#xad;" horiz-adv-x="632" d="M106 719h422v84h-422v-84z" />
<glyph unicode="&#xae;" horiz-adv-x="827" d="M84 1104q0 -132 95 -228q94 -96 229 -96q134 0 228 96q95 96 95 228q0 133 -95 228t-228 95q-134 0 -229 -95t-95 -228zM115 1104q0 123 85 208t208 85q122 0 207 -85t85 -208t-85 -208t-207 -85q-123 0 -208 85t-85 208zM295 926h29v172h63l119 -172h37l-121 172h16 q105 0 105 100q0 43 -29 71.5t-76 28.5h-143v-372zM324 1126v144h116q37 0 55.5 -21.5t18.5 -50.5q0 -72 -74 -72h-116z" />
<glyph unicode="&#xaf;" horiz-adv-x="919" d="M96 1317h752v74h-752v-74z" />
<glyph unicode="&#xb0;" horiz-adv-x="434" d="M49 1262q0 -70 49 -119t119 -49t119 49t49 119t-49 119t-119 49t-119 -49.5t-49 -118.5zM90 1262q0 53 37 90t90 37t90 -37t37 -90t-37 -90t-90 -37t-90 37t-37 90z" />
<glyph unicode="&#xb1;" horiz-adv-x="784" d="M147 348h502v84h-502v-84zM147 719h209v-209h84v209h209v84h-209v209h-84v-209h-209v-84z" />
<glyph unicode="&#xb2;" horiz-adv-x="565" d="M88 870h393v39h-338l7 33q18 76 71 126t110.5 96t103.5 94.5t46 113.5t-48 113.5t-144 48.5q-83 0 -139 -50q-38 -36 -54 -106h41q30 119 152 119q72 0 112.5 -36t40.5 -91t-38.5 -93t-83 -72t-77 -60.5t-59.5 -56.5q-65 -69 -80 -140z" />
<glyph unicode="&#xb3;" horiz-adv-x="565" d="M86 1014q10 -57 57 -101.5t146 -44.5q132 0 181 101q17 35 17 98.5t-36.5 106.5t-77.5 55q38 5 63 33q47 53 47 119.5t-52 113.5t-122.5 47t-106.5 -14.5t-58 -35.5q-46 -44 -50 -97h39q8 73 86 100q29 10 84.5 10t99 -33.5t43.5 -82t-13 -72t-33 -38.5q-38 -30 -93 -30 h-57v-39h57q53 0 98.5 -41t45.5 -99t-15.5 -87t-39.5 -46q-44 -32 -112.5 -32t-108.5 31t-50 78h-39z" />
<glyph unicode="&#xb4;" horiz-adv-x="542" d="M127 1294l59 -59l256 256l-59 59z" />
<glyph unicode="&#xb6;" horiz-adv-x="1034" d="M100 1098q0 -159 107 -262q108 -105 291 -105h137v-856h84v1587h-221q-183 0 -291 -104q-107 -103 -107 -260zM829 -125h84v1587h-84v-1587z" />
<glyph unicode="&#xb7;" horiz-adv-x="481" d="M125 810q0 -46 31.5 -78t77.5 -32t77 32t31 78t-30.5 77t-77 31t-78 -31t-31.5 -77z" />
<glyph unicode="&#xb8;" horiz-adv-x="428" d="M106 -182v-82q51 -51 114.5 -51t102.5 33.5t39 85t-27 77t-54 35.5l26 84h-90l-33 -92q88 -32 88 -82q0 -57 -53 -57q-73 0 -113 49z" />
<glyph unicode="&#xb9;" horiz-adv-x="565" d="M215 887h150v33h-58v624h-92v-35h55v-589h-55v-33z" />
<glyph unicode="&#xba;" horiz-adv-x="802" d="M94 1104q0 -138 78 -230q87 -104 223 -104q138 0 223 104q78 93 78 230q0 134 -78 229q-86 105 -223 105q-136 0 -223 -105q-78 -94 -78 -229zM100 586h615v51h-615v-51zM143 1104q0 114 63 193q71 89 189 89q119 0 189 -89q63 -79 63 -194q0 -52 -15.5 -102.5 t-47.5 -90.5q-70 -89 -189 -89q-118 0 -189 89q-63 79 -63 194z" />
<glyph unicode="&#xbb;" horiz-adv-x="899" d="M100 879l351 -353l-349 -348l35 -37l385 385l-387 387zM406 879l350 -353l-348 -348l34 -37l385 385l-387 387z" />
<glyph unicode="&#xbc;" horiz-adv-x="565" d="M45 162h324v-121h-37v-39h112v39h-36v121h59v37h-59v471h-29l-334 -482v-26zM53 760h475v41h-475v-41zM98 199l271 389v-389h-271zM215 887h150v33h-58v624h-92v-35h55v-589h-55v-33z" />
<glyph unicode="&#xbd;" horiz-adv-x="565" d="M45 756h477v41h-477v-41zM84 -2h393v39h-338l6 33q18 76 71.5 126t111 96t103.5 94t46 113.5t-48 114t-144 48.5q-83 0 -139 -50q-38 -36 -54 -106h41q30 119 152 119q72 0 112.5 -36t40.5 -91t-39 -93t-83 -72t-76.5 -60.5t-59.5 -56.5q-66 -71 -80 -140zM217 885h150 v33h-58v624h-92v-35h55v-589h-55v-33z" />
<glyph unicode="&#xbe;" horiz-adv-x="565" d="M45 162h324v-121h-37v-39h112v39h-36v121h59v37h-59v471h-29l-334 -482v-26zM53 760h475v41h-475v-41zM86 1014q10 -57 57 -101.5t146 -44.5q132 0 181 101q17 35 17 98.5t-36.5 106.5t-77.5 55q38 5 63 33q47 53 47 119.5t-52 113.5t-122.5 47t-106.5 -14.5t-58 -35.5 q-46 -44 -50 -97h39q8 73 86 100q29 10 84.5 10t99 -33.5t43.5 -82t-13 -72t-33 -38.5q-38 -30 -93 -30h-57v-39h57q53 0 98.5 -41t45.5 -99t-15.5 -87t-39.5 -46q-44 -32 -112.5 -32t-108.5 31t-50 78h-39zM98 199l271 389v-389h-271z" />
<glyph unicode="&#xbf;" horiz-adv-x="899" d="M61 252q0 -102 29 -177t81 -128q109 -111 296 -111q157 0 263 90q76 64 122 180l-78 37q-55 -152 -187 -205q-52 -20 -120 -20q-152 0 -238 88t-86 236q0 273 232 334q74 20 164 22v348h-84v-276q-271 -21 -361 -237q-33 -79 -33 -181zM424 1253q0 -31 21.5 -52t52.5 -21 t52 21.5t21 51.5q0 31 -21.5 52.5t-51.5 21.5q-31 0 -52.5 -21.5t-21.5 -52.5z" />
<glyph unicode="&#xc0;" horiz-adv-x="1492" d="M68 0h374v86h-137l127 363h658l129 -363h-140v-86h355v86h-115l-463 1290h115v86h-426v-86h114l-462 -1290h-129v-86zM463 535l295 835l303 -835h-598zM539 1753l204 -203l48 47l-203 205z" />
<glyph unicode="&#xc1;" horiz-adv-x="1492" d="M68 0h374v86h-137l127 363h658l129 -363h-140v-86h355v86h-115l-463 1290h115v86h-426v-86h114l-462 -1290h-129v-86zM463 535l295 835l303 -835h-598zM711 1597l45 -47l205 203l-48 49z" />
<glyph unicode="&#xc2;" horiz-adv-x="1492" d="M68 0h374v86h-137l127 363h658l129 -363h-140v-86h355v86h-115l-463 1290h115v86h-426v-86h114l-462 -1290h-129v-86zM463 535l295 835l303 -835h-598zM541 1591l39 -39l172 174l174 -174l37 41l-191 191h-39z" />
<glyph unicode="&#xc3;" horiz-adv-x="1492" d="M68 0h374v86h-137l127 363h658l129 -363h-140v-86h355v86h-115l-463 1290h115v86h-426v-86h114l-462 -1290h-129v-86zM432 1649l57 -45q16 20 47 43.5t83.5 23.5t77 -13t46.5 -32q29 -18 62 -35.5t99.5 -17.5t111.5 33.5t74 62.5l-60 47q-18 -20 -47 -40.5t-76 -20.5 t-74.5 16.5t-57.5 35.5q-73 46 -130 46t-90 -11t-57 -26q-33 -21 -66 -67zM463 535l295 835l303 -835h-598z" />
<glyph unicode="&#xc4;" horiz-adv-x="1482" d="M68 0h374v86h-137l127 363h658l129 -363h-140v-86h355v86h-115l-463 1290h115v86h-426v-86h114l-462 -1290h-129v-86zM463 535l295 835l303 -835h-598zM547 1632q0 -29 18.5 -47t46.5 -18q29 0 47.5 18t18.5 47t-18.5 47.5t-47.5 18.5t-47 -18.5t-18 -47.5zM829 1632 q0 -29 18.5 -47t47.5 -18t47.5 18t18.5 47t-18.5 47.5t-47.5 18.5t-47.5 -18.5t-18.5 -47.5z" />
<glyph unicode="&#xc5;" horiz-adv-x="1482" d="M68 0h374v86h-137l127 363h658l129 -363h-140v-86h355v86h-115l-463 1290h115v86h-426v-86h114l-462 -1290h-129v-86zM463 535l295 835l303 -835h-598zM592 1669q0 -70 49 -119t119 -49t119 49t49 119t-49.5 119t-118.5 49q-70 0 -119 -49t-49 -119zM633 1669q0 53 37 90 t90 37t90 -37t37 -90t-37 -90t-90 -37t-90 37t-37 90z" />
<glyph unicode="&#xc6;" horiz-adv-x="1529" d="M29 0h366v86h-143l235 586h277v-586h-156v-86h858v246h-86v-160h-518v684h387v-104h86v295h-86v-105h-387v520h518v-153h86v239h-958v-86h158l-512 -1290h-125v-86zM518 752l246 622v-622h-246z" />
<glyph unicode="&#xc7;" horiz-adv-x="1439" d="M78 732q0 -155 53 -288t147.5 -232t223.5 -160.5t278 -69.5l-45 -111q45 0 72 -18.5t27 -45.5q0 -57 -62 -57t-102 49v-82q51 -51 114 -51t101.5 34t38.5 85t-27 80t-55 39l26 76q178 7 318 84q92 50 168 137v125q-216 -248 -527 -248q-279 0 -465 185q-186 184 -186 466 t186 466q186 185 465 185q152 0 258.5 -50t186.5 -118v-129h98v363h-98v-113q-120 97 -300 133q-67 13 -145 13q-158 0 -295 -57.5t-238 -159t-158.5 -238.5t-57.5 -292z" />
<glyph unicode="&#xc8;" horiz-adv-x="993" d="M55 0h858v246h-86v-160h-518v684h387v-104h86v295h-86v-105h-387v520h518v-153h86v239h-858v-86h156v-1290h-156v-86zM350 1753l205 -203l47 47l-203 205z" />
<glyph unicode="&#xc9;" horiz-adv-x="993" d="M55 0h858v246h-86v-160h-518v684h387v-104h86v295h-86v-105h-387v520h518v-153h86v239h-858v-86h156v-1290h-156v-86zM469 1597l45 -47l205 203l-47 49z" />
<glyph unicode="&#xca;" horiz-adv-x="993" d="M55 0h858v246h-86v-160h-518v684h387v-104h86v295h-86v-105h-387v520h518v-153h86v239h-858v-86h156v-1290h-156v-86zM328 1591l39 -39l172 174l174 -174l37 41l-193 191h-37z" />
<glyph unicode="&#xcb;" horiz-adv-x="993" d="M55 0h858v246h-86v-160h-518v684h387v-104h86v295h-86v-105h-387v520h518v-153h86v239h-858v-86h156v-1290h-156v-86zM336 1632q0 -29 18.5 -47t46.5 -18q29 0 47.5 18t18.5 47t-18.5 47.5t-47.5 18.5t-47 -18.5t-18 -47.5zM618 1632q0 -29 18.5 -47t47.5 -18t47.5 18 t18.5 47t-18.5 47.5t-47.5 18.5t-47.5 -18.5t-18.5 -47.5z" />
<glyph unicode="&#xcc;" horiz-adv-x="618" d="M76 1753l205 -203l45 47l-203 205zM115 0h397v86h-150v1290h150v86h-397v-86h149v-1290h-149v-86z" />
<glyph unicode="&#xcd;" horiz-adv-x="618" d="M115 0h397v86h-150v1290h150v86h-397v-86h149v-1290h-149v-86zM285 1597l45 -47l205 203l-48 49z" />
<glyph unicode="&#xce;" horiz-adv-x="618" d="M96 1591l37 -39l174 174l174 -174l37 41l-192 191h-37zM115 0h397v86h-150v1290h150v86h-397v-86h149v-1290h-149v-86z" />
<glyph unicode="&#xcf;" horiz-adv-x="618" d="M102 1632q0 -29 18.5 -47t47.5 -18t47 18t18 47t-18 47.5t-47 18.5t-47.5 -18.5t-18.5 -47.5zM115 0h397v86h-150v1290h150v86h-397v-86h149v-1290h-149v-86zM385 1632q0 -29 18.5 -47t47.5 -18t47 18t18 47t-18.5 47.5t-46.5 18.5q-29 0 -47.5 -18.5t-18.5 -47.5z" />
<glyph unicode="&#xd0;" horiz-adv-x="1378" d="M55 719h158v-633h-156v-86h613q133 0 256 50t218 145.5t152.5 231.5t57.5 305t-56.5 304t-149.5 229.5t-216 145.5t-258 51h-617v-86h156v-571h-158v-86zM311 86v633h381v86h-381v571h353q246 0 416 -180q175 -186 175 -463q0 -278 -178 -465q-82 -86 -189.5 -134 t-223.5 -48h-353z" />
<glyph unicode="&#xd1;" horiz-adv-x="1546" d="M51 0h348v86h-125v1163l1059 -1253h49v1380h127v86h-352v-86h127v-1163l-1051 1249h-182v-86h125v-1290h-125v-86zM414 1649l57 -45q16 20 47 43.5t82 23.5t76.5 -13t50.5 -31.5t58.5 -36t81 -17.5t77 9t53 23.5t41.5 32.5l31 31l-57 47q-18 -20 -47 -40.5t-76 -20.5 t-75 16.5t-58 35.5q-71 46 -129 46t-90.5 -11t-56.5 -26q-33 -21 -66 -67z" />
<glyph unicode="&#xd2;" horiz-adv-x="1646" d="M78 729q0 -156 59.5 -292t160.5 -237.5t237 -160.5t292 -59t292 59t238.5 160.5t162 237.5t59.5 292t-59.5 292t-162 237.5t-238.5 161t-292 59.5t-292 -59.5t-237 -161t-160.5 -237.5t-59.5 -292zM176 730q0 134 51.5 252t140.5 207t207.5 140t252.5 51t253 -51 t208 -140q192 -192 192 -460q0 -133 -51.5 -252t-140.5 -208t-208 -140t-253 -51t-252.5 51t-207.5 140t-140.5 208t-51.5 253zM639 1753l205 -203l47 47l-203 205z" />
<glyph unicode="&#xd3;" horiz-adv-x="1646" d="M78 729q0 -156 59.5 -292t160.5 -237.5t237 -160.5t292 -59t292 59t238.5 160.5t162 237.5t59.5 292t-59.5 292t-162 237.5t-238.5 161t-292 59.5t-292 -59.5t-237 -161t-160.5 -237.5t-59.5 -292zM176 730q0 134 51.5 252t140.5 207t207.5 140t252.5 51t253 -51 t208 -140q192 -192 192 -460q0 -133 -51.5 -252t-140.5 -208t-208 -140t-253 -51t-252.5 51t-207.5 140t-140.5 208t-51.5 253zM791 1597l45 -47l204 203l-47 49z" />
<glyph unicode="&#xd4;" horiz-adv-x="1646" d="M78 729q0 -156 59.5 -292t160.5 -237.5t237 -160.5t292 -59t292 59t238.5 160.5t162 237.5t59.5 292t-59.5 292t-162 237.5t-238.5 161t-292 59.5t-292 -59.5t-237 -161t-160.5 -237.5t-59.5 -292zM176 730q0 134 51.5 252t140.5 207t207.5 140t252.5 51t253 -51 t208 -140q192 -192 192 -460q0 -133 -51.5 -252t-140.5 -208t-208 -140t-253 -51t-252.5 51t-207.5 140t-140.5 208t-51.5 253zM616 1591l37 -39l174 174l174 -174l37 41l-192 191h-37z" />
<glyph unicode="&#xd5;" horiz-adv-x="1646" d="M78 729q0 -156 59.5 -292t160.5 -237.5t237 -160.5t292 -59t292 59t238.5 160.5t162 237.5t59.5 292t-59.5 292t-162 237.5t-238.5 161t-292 59.5t-292 -59.5t-237 -161t-160.5 -237.5t-59.5 -292zM176 730q0 134 51.5 252t140.5 207t207.5 140t252.5 51t253 -51 t208 -140q192 -192 192 -460q0 -133 -51.5 -252t-140.5 -208t-208 -140t-253 -51t-252.5 51t-207.5 140t-140.5 208t-51.5 253zM492 1649l55 -45q54 67 143 67q59 0 113 -45q27 -18 60.5 -35.5t79.5 -17.5t77 9t54.5 23.5t41.5 32.5l31 31l-57 47q-20 -20 -49 -40.5 t-76.5 -20.5t-74 16.5t-56.5 35.5q-73 46 -130 46t-89.5 -11t-57.5 -26q-31 -20 -65 -67z" />
<glyph unicode="&#xd6;" horiz-adv-x="1640" d="M78 729q0 -156 59.5 -292t160.5 -237.5t237 -160.5t292 -59t292 59t238.5 160.5t162 237.5t59.5 292t-59.5 292t-162 237.5t-238.5 161t-292 59.5t-292 -59.5t-237 -161t-160.5 -237.5t-59.5 -292zM176 730q0 134 51.5 252t140.5 207t207.5 140t252.5 51t253 -51 t208 -140q192 -192 192 -460q0 -133 -51.5 -252t-140.5 -208t-208 -140t-253 -51t-252.5 51t-207.5 140t-140.5 208t-51.5 253zM618 1632q0 -29 18.5 -47t47.5 -18t47.5 18t18.5 47t-18.5 47.5t-47.5 18.5t-47.5 -18.5t-18.5 -47.5zM901 1632q0 -29 18.5 -47t47.5 -18t47 18 t18 47t-18.5 47.5t-46.5 18.5q-29 0 -47.5 -18.5t-18.5 -47.5z" />
<glyph unicode="&#xd7;" horiz-adv-x="739" d="M66 47l67 -47l240 354l239 -354l70 43l-258 385l252 375l-70 43l-233 -350l-236 350l-67 -45l252 -375z" />
<glyph unicode="&#xd8;" horiz-adv-x="1650" d="M78 716q0 -169 79 -323.5t214 -259.5l-121 -174h110l86 125q175 -104 356 -104t317 59t238.5 160.5t162 237.5t59.5 303t-75 317t-204 254q20 31 43 62.5t41.5 59t30.5 45.5l12 17h-110l-15 -21q-14 -20 -30.5 -44.5t-31.5 -45.5l-15 -20q-180 115 -398 115 q-156 0 -292 -59.5t-237 -161t-160.5 -237.5t-59.5 -305zM176 718.5q0 145.5 51.5 263.5t140.5 207t207.5 140t232.5 51q209 0 361 -98l-741 -1067q-117 92 -184.5 225t-67.5 278.5zM504 166q2 4 41 59.5t105.5 151.5t144 207.5t157.5 226.5t144.5 208t85.5 122l61 88 q111 -90 174.5 -219t63.5 -271.5t-51.5 -261.5t-140.5 -208q-191 -191 -462 -191q-176 0 -323 88z" />
<glyph unicode="&#xd9;" horiz-adv-x="1185" d="M43 1378h127v-1005q0 -184 133 -292q117 -95 291 -95q170 0 290 95q134 107 134 292v1005h125v84h-348v-84h125v-1013q0 -139 -106 -217q-89 -64 -220 -64q-211 0 -296 152q-30 53 -30 129v1013h127v84h-352v-84zM385 1753l205 -203l45 47l-203 205z" />
<glyph unicode="&#xda;" horiz-adv-x="1185" d="M43 1378h127v-1005q0 -184 133 -292q117 -95 291 -95q170 0 290 95q134 107 134 292v1005h125v84h-348v-84h125v-1013q0 -139 -106 -217q-89 -64 -220 -64q-211 0 -296 152q-30 53 -30 129v1013h127v84h-352v-84zM555 1597l47 -47l205 203l-49 49z" />
<glyph unicode="&#xdb;" horiz-adv-x="1185" d="M43 1378h127v-1005q0 -184 133 -292q117 -95 291 -95q170 0 290 95q134 107 134 292v1005h125v84h-348v-84h125v-1013q0 -139 -106 -217q-89 -64 -220 -64q-211 0 -296 152q-30 53 -30 129v1013h127v84h-352v-84zM385 1591l37 -39l174 174l174 -174l37 41l-193 191h-36z " />
<glyph unicode="&#xdc;" horiz-adv-x="1185" d="M43 1378h127v-1005q0 -184 133 -292q117 -95 291 -95q170 0 290 95q134 107 134 292v1005h125v84h-348v-84h125v-1013q0 -139 -106 -217q-89 -64 -220 -64q-211 0 -296 152q-30 53 -30 129v1013h127v84h-352v-84zM383 1632q0 -29 18.5 -47t47.5 -18t47 18t18 47 t-18.5 47.5t-46.5 18.5q-29 0 -47.5 -18.5t-18.5 -47.5zM666 1632q0 -29 18 -47t47 -18t47.5 18t18.5 47t-18.5 47.5t-47.5 18.5t-47 -18.5t-18 -47.5z" />
<glyph unicode="&#xdd;" horiz-adv-x="1165" d="M61 1376h113l361 -635v-655h-115v-86h328v86h-115v655l360 635h117v86h-309v-86h94l-311 -555l-312 555h97v86h-308v-86zM571 1597l45 -47l205 203l-47 49z" />
<glyph unicode="&#xde;" horiz-adv-x="993" d="M39 0h369v86h-136v281h273q184 0 290.5 105.5t106.5 287t-107 290.5t-290 109h-273v217h136v86h-369v-86h135v-1290h-135v-86zM272 453v620h273q133 0 216 -82t83 -234.5t-83 -228t-216 -75.5h-273z" />
<glyph unicode="&#xdf;" horiz-adv-x="1095" d="M45 762h117v-762h82v1098q0 154 72.5 217t185.5 63q108 0 185 -70q79 -71 79 -178q0 -118 -78 -203q-75 -81 -176 -81v-82q312 0 404 -178q34 -64 34 -144t-21.5 -142t-61.5 -110q-87 -106 -228 -106h-233v-84h231q184 0 293 124q104 118 104 306q0 184 -120 291 q-97 87 -228 106q72 47 118 116t46 163t-27.5 155.5t-76 105.5t-111.5 69.5t-135 25.5t-133.5 -22.5t-107.5 -68.5q-97 -97 -97 -271v-254h-117v-84z" />
<glyph unicode="&#xe0;" horiz-adv-x="1159" d="M90 367q0 -158 106 -267q115 -120 310 -120q217 0 328 110q30 29 51 53v-143h233v74h-151v641q0 165 -118 268q-110 96 -290 96q-98 0 -192.5 -32.5t-155.5 -94.5l49 -67q47 47 127 78.5t155.5 31.5t134 -18.5t104.5 -54.5q104 -83 104 -226v-116q-82 117 -243 158 q-58 14 -144 14t-165 -32t-133 -85q-110 -109 -110 -268zM174 366q0 56 20.5 110t62.5 97q95 97 253 97q172 0 269 -95q89 -87 89 -208q0 -122 -89 -209q-97 -95 -269 -95q-158 0 -251 95q-85 87 -85 208zM328 1491l258 -256l57 59l-254 256z" />
<glyph unicode="&#xe1;" horiz-adv-x="1159" d="M90 367q0 -158 106 -267q115 -120 310 -120q217 0 328 110q30 29 51 53v-143h233v74h-151v641q0 165 -118 268q-110 96 -290 96q-98 0 -192.5 -32.5t-155.5 -94.5l49 -67q47 47 127 78.5t155.5 31.5t134 -18.5t104.5 -54.5q104 -83 104 -226v-116q-82 117 -243 158 q-58 14 -144 14t-165 -32t-133 -85q-110 -109 -110 -268zM174 366q0 56 20.5 110t62.5 97q95 97 253 97q172 0 269 -95q89 -87 89 -208q0 -122 -89 -209q-97 -95 -269 -95q-158 0 -251 95q-85 87 -85 208zM489 1294l58 -59l258 256l-62 59z" />
<glyph unicode="&#xe2;" horiz-adv-x="1159" d="M90 367q0 -158 106 -267q115 -120 310 -120q217 0 328 110q30 29 51 53v-143h233v74h-151v641q0 165 -118 268q-110 96 -290 96q-98 0 -192.5 -32.5t-155.5 -94.5l49 -67q47 47 127 78.5t155.5 31.5t134 -18.5t104.5 -54.5q104 -83 104 -226v-116q-82 117 -243 158 q-58 14 -144 14t-165 -32t-133 -85q-110 -109 -110 -268zM174 366q0 56 20.5 110t62.5 97q95 97 253 97q172 0 269 -95q89 -87 89 -208q0 -122 -89 -209q-97 -95 -269 -95q-158 0 -251 95q-85 87 -85 208zM307 1262l47 -45l219 215l215 -215l46 47l-238 241h-49z" />
<glyph unicode="&#xe3;" horiz-adv-x="1159" d="M90 367q0 -158 106 -267q115 -120 310 -120q217 0 328 110q30 29 51 53v-143h233v74h-151v641q0 165 -118 268q-110 96 -290 96q-98 0 -192.5 -32.5t-155.5 -94.5l49 -67q47 47 127 78.5t155.5 31.5t134 -18.5t104.5 -54.5q104 -83 104 -226v-116q-82 117 -243 158 q-58 14 -144 14t-165 -32t-133 -85q-110 -109 -110 -268zM174 366q0 56 20.5 110t62.5 97q95 97 253 97q172 0 269 -95q89 -87 89 -208q0 -122 -89 -209q-97 -95 -269 -95q-158 0 -251 95q-85 87 -85 208zM252 1298l57 -47q16 20 48 45t83.5 25t76 -13.5t48.5 -33.5 q27 -18 59.5 -34.5t99.5 -16.5t112 32.5t73 63.5l-59 45q-18 -18 -47 -38.5t-76 -20.5t-74.5 16t-57.5 35q-77 47 -132 47t-88 -11.5t-57 -26.5q-34 -22 -66 -67z" />
<glyph unicode="&#xe4;" horiz-adv-x="1159" d="M90 367q0 -158 106 -267q115 -120 310 -120q217 0 328 110q30 29 51 53v-143h233v74h-151v641q0 165 -118 268q-110 96 -290 96q-98 0 -192.5 -32.5t-155.5 -94.5l49 -67q47 47 127 78.5t155.5 31.5t134 -18.5t104.5 -54.5q104 -83 104 -226v-116q-82 117 -243 158 q-58 14 -144 14t-165 -32t-133 -85q-110 -109 -110 -268zM174 366q0 56 20.5 110t62.5 97q95 97 253 97q172 0 269 -95q89 -87 89 -208q0 -122 -89 -209q-97 -95 -269 -95q-158 0 -251 95q-85 87 -85 208zM356 1350q0 -29 18.5 -47.5t47.5 -18.5t47 18.5t18 47.5t-18 47 t-47 18t-47.5 -18.5t-18.5 -46.5zM639 1350q0 -29 18.5 -47.5t47.5 -18.5t47 18.5t18 47.5t-18.5 47t-46.5 18q-29 0 -47.5 -18.5t-18.5 -46.5z" />
<glyph unicode="&#xe5;" horiz-adv-x="1159" d="M90 367q0 -158 106 -267q115 -120 310 -120q217 0 328 110q30 29 51 53v-143h233v74h-151v641q0 165 -118 268q-110 96 -290 96q-98 0 -192.5 -32.5t-155.5 -94.5l49 -67q47 47 127 78.5t155.5 31.5t134 -18.5t104.5 -54.5q104 -83 104 -226v-116q-82 117 -243 158 q-58 14 -144 14t-165 -32t-133 -85q-110 -109 -110 -268zM174 366q0 56 20.5 110t62.5 97q95 97 253 97q172 0 269 -95q89 -87 89 -208q0 -122 -89 -209q-97 -95 -269 -95q-158 0 -251 95q-85 87 -85 208zM399 1366q0 -70 49.5 -119t118.5 -49q70 0 119 49t49 119t-49 119 t-119 49t-119 -49t-49 -119zM440 1366q0 53 37 90t90 37t90 -37t37 -90t-36.5 -90t-90.5 -37q-53 0 -90 37t-37 90z" />
<glyph unicode="&#xe6;" horiz-adv-x="1943" d="M90 367q0 -158 106 -267q115 -120 310 -120q217 0 328 110q30 29 51 53v-143h82v166q140 -195 387 -195q257 0 389 157q37 44 65 89l-71 47q-67 -97 -124 -134q-113 -75 -261 -75q-173 0 -284 145q-103 135 -103 318h884q2 14 2 29v35q0 195 -135 342q-146 159 -362 159 q-133 0 -237.5 -64.5t-170.5 -172.5q-41 111 -145.5 172t-222.5 61q-242 0 -367 -127l49 -67q47 47 127 78.5t155.5 31.5t134 -18.5t104.5 -54.5q104 -83 104 -226v-116q-119 172 -379 172q-191 0 -310 -120q-106 -107 -106 -265zM174 366q0 56 20.5 110t62.5 97 q95 97 253 97q172 0 269 -95q89 -87 89 -208q0 -122 -89 -209q-97 -95 -269 -95q-158 0 -251 95q-85 87 -85 208zM971 602q4 145 108 266q111 131 275 131q167 0 282 -131q106 -121 115 -266h-780z" />
<glyph unicode="&#xe7;" horiz-adv-x="985" d="M59 524q0 -224 125 -374q136 -166 369 -181l-39 -108q39 0 66.5 -21.5t27.5 -47.5t-15 -43t-42 -17q-59 0 -109 55v-82q55 -55 114.5 -55t100.5 35.5t41 87t-27.5 77t-54.5 35.5l27 84q159 9 256 97v108q-62 -57 -106 -79q-86 -42 -198 -42t-197 39t-142 104 q-115 130 -115 328q0 197 115 330q124 143 340 143q139 0 229 -49v-96h74v246h-74v-54q-95 37 -226.5 37t-232 -46t-168.5 -123q-139 -154 -139 -388z" />
<glyph unicode="&#xe8;" horiz-adv-x="1153" d="M80 528q0 -230 122 -384q137 -173 371 -173q257 0 387 157q37 44 66 89l-72 47q-64 -99 -119 -135.5t-116.5 -55t-149.5 -18.5t-161.5 36t-125.5 97q-108 126 -108 330h893q2 14 2 29v35q0 195 -133 342q-143 159 -363 159q-214 0 -355 -161q-138 -156 -138 -394z M182 592q4 163 108 282q108 125 283 125t288 -121q108 -114 116 -286h-795zM344 1491l258 -256l57 59l-253 256z" />
<glyph unicode="&#xe9;" horiz-adv-x="1153" d="M80 528q0 -230 122 -384q137 -173 371 -173q257 0 387 157q37 44 66 89l-72 47q-64 -99 -119 -135.5t-116.5 -55t-149.5 -18.5t-161.5 36t-125.5 97q-108 126 -108 330h893q2 14 2 29v35q0 195 -133 342q-143 159 -363 159q-214 0 -355 -161q-138 -156 -138 -394z M182 592q4 163 108 282q108 125 283 125t288 -121q108 -114 116 -286h-795zM465 1294l57 -59l258 256l-61 59z" />
<glyph unicode="&#xea;" horiz-adv-x="1153" d="M80 528q0 -230 122 -384q137 -173 371 -173q257 0 387 157q37 44 66 89l-72 47q-64 -99 -119 -135.5t-116.5 -55t-149.5 -18.5t-161.5 36t-125.5 97q-108 126 -108 330h893q2 14 2 29v35q0 195 -133 342q-143 159 -363 159q-214 0 -355 -161q-138 -156 -138 -394z M182 592q4 163 108 282q108 125 283 125t288 -121q108 -114 116 -286h-795zM311 1262l49 -45l218 215l215 -215l45 47l-238 241h-49z" />
<glyph unicode="&#xeb;" horiz-adv-x="1153" d="M80 528q0 -230 122 -384q137 -173 371 -173q257 0 387 157q37 44 66 89l-72 47q-64 -99 -119 -135.5t-116.5 -55t-149.5 -18.5t-161.5 36t-125.5 97q-108 126 -108 330h893q2 14 2 29v35q0 195 -133 342q-143 159 -363 159q-214 0 -355 -161q-138 -156 -138 -394z M182 592q4 163 108 282q108 125 283 125t288 -121q108 -114 116 -286h-795zM360 1350q0 -29 18.5 -47.5t47.5 -18.5t47.5 18.5t18.5 47.5t-18.5 47t-47.5 18t-47.5 -18.5t-18.5 -46.5zM643 1350q0 -29 18.5 -47.5t47.5 -18.5t47 18.5t18 47.5t-18.5 47t-46.5 18 q-29 0 -47.5 -18.5t-18.5 -46.5z" />
<glyph unicode="&#xec;" horiz-adv-x="522" d="M-39 1491l256 -256l59 59l-256 256zM117 0h334v84h-125v971h-209v-84h125v-887h-125v-84z" />
<glyph unicode="&#xed;" horiz-adv-x="522" d="M117 0h334v84h-125v971h-209v-84h125v-887h-125v-84zM158 1294l57 -59l258 256l-61 59z" />
<glyph unicode="&#xee;" horiz-adv-x="522" d="M-12 1262l47 -45l217 215l217 -215l45 47l-238 241h-49zM106 0h334v84h-125v971h-209v-84h125v-887h-125v-84z" />
<glyph unicode="&#xef;" horiz-adv-x="522" d="M55 1350q0 -29 18.5 -47.5t47.5 -18.5t47 18.5t18 47.5t-18 47t-47 18t-47.5 -18.5t-18.5 -46.5zM106 0h334v84h-125v971h-209v-84h125v-887h-125v-84zM338 1350q0 -29 18.5 -47.5t46.5 -18.5q29 0 47.5 18.5t18.5 47.5t-18.5 47t-47.5 18t-47 -18.5t-18 -46.5z" />
<glyph unicode="&#xf0;" horiz-adv-x="1019" d="M72 422q0 -183 126.5 -309.5t309.5 -126.5t309.5 126.5t126.5 296t-19.5 285t-56.5 204.5q-64 155 -215 284l187 116l-82 54l-180 -113q-102 70 -216 104l-73 -71q102 -35 196 -90l-178 -113l82 -53l176 110q92 -72 140 -138q90 -126 120 -267q-122 137 -317 137 q-183 0 -309.5 -126.5t-126.5 -309.5zM154 422q0 148 103 251t251 103t251 -103t103 -251t-103 -251t-251 -103t-251 103t-103 251z" />
<glyph unicode="&#xf1;" d="M94 0h334v74h-125v702q0 23 18.5 60.5t54.5 74.5q88 90 214 90q199 0 264 -157q23 -56 23 -135v-635h-127v-74h337v74h-129v667q0 164 -109 258q-100 86 -259 86q-155 0 -248 -91q-25 -25 -39 -46v107h-209v-72h125v-909h-125v-74zM246 1298l57 -47q16 20 48 45t83 25 t76 -13.5t47 -33.5q29 -18 61.5 -34.5t99.5 -16.5t111.5 32.5t73.5 63.5l-59 45q-18 -18 -47 -38.5t-76 -20.5t-75 16t-58 35q-75 47 -131 47t-88.5 -11.5t-56.5 -26.5q-34 -22 -66 -67z" />
<glyph unicode="&#xf2;" horiz-adv-x="1146" d="M74 530q0 -227 128 -382q64 -76 158.5 -123.5t214.5 -47.5q228 0 373 171q129 154 129 382t-129 384q-143 171 -373 171q-232 0 -373 -171q-128 -157 -128 -384zM158 530q0 190 103 323q115 148 314 148q198 0 313 -148q105 -135 105 -323t-105 -322q-115 -147 -313 -147 q-199 0 -314 147q-103 131 -103 322zM360 1491l256 -256l60 59l-256 256z" />
<glyph unicode="&#xf3;" horiz-adv-x="1146" d="M74 530q0 -227 128 -382q64 -76 158.5 -123.5t214.5 -47.5q228 0 373 171q129 154 129 382t-129 384q-143 171 -373 171q-232 0 -373 -171q-128 -157 -128 -384zM158 530q0 190 103 323q115 148 314 148q198 0 313 -148q105 -135 105 -323t-105 -322q-115 -147 -313 -147 q-199 0 -314 147q-103 131 -103 322zM469 1294l57 -59l258 256l-61 59z" />
<glyph unicode="&#xf4;" horiz-adv-x="1146" d="M74 530q0 -227 128 -382q64 -76 158.5 -123.5t214.5 -47.5q228 0 373 171q129 154 129 382t-129 384q-143 171 -373 171q-232 0 -373 -171q-128 -157 -128 -384zM158 530q0 190 103 323q115 148 314 148q198 0 313 -148q105 -135 105 -323t-105 -322q-115 -147 -313 -147 q-199 0 -314 147q-103 131 -103 322zM309 1262l47 -45l219 215l216 -215l45 47l-238 241h-49z" />
<glyph unicode="&#xf5;" horiz-adv-x="1146" d="M74 530q0 -227 128 -382q64 -76 158.5 -123.5t214.5 -47.5q228 0 373 171q129 154 129 382t-129 384q-143 171 -373 171q-232 0 -373 -171q-128 -157 -128 -384zM158 530q0 190 103 323q115 148 314 148q198 0 313 -148q105 -135 105 -323t-105 -322q-115 -147 -313 -147 q-199 0 -314 147q-103 131 -103 322zM246 1298l57 -47q16 20 48 45t83 25t76 -13.5t47 -33.5q29 -18 61.5 -34.5t99.5 -16.5t111.5 32.5t73.5 63.5l-59 45q-18 -18 -47 -38.5t-76 -20.5t-75 16t-58 35q-75 47 -131 47t-88.5 -11.5t-56.5 -26.5q-34 -22 -66 -67z" />
<glyph unicode="&#xf6;" horiz-adv-x="1146" d="M74 530q0 -227 128 -382q64 -76 158.5 -123.5t214.5 -47.5q228 0 373 171q129 154 129 382t-129 384q-143 171 -373 171q-232 0 -373 -171q-128 -157 -128 -384zM158 530q0 190 103 323q115 148 314 148q198 0 313 -148q105 -135 105 -323t-105 -322q-115 -147 -313 -147 q-199 0 -314 147q-103 131 -103 322zM369 1350q0 -29 18.5 -47.5t46.5 -18.5q29 0 47.5 18.5t18.5 47.5t-18.5 47t-47.5 18t-47 -18.5t-18 -46.5zM651 1350q0 -29 18.5 -47.5t47.5 -18.5t47 18.5t18 47.5t-18.5 47t-46.5 18q-29 0 -47.5 -18.5t-18.5 -46.5z" />
<glyph unicode="&#xf7;" horiz-adv-x="741" d="M119 719h526v84h-526v-84zM303 514q0 -31 21.5 -52.5t52.5 -21.5t52.5 21.5t21.5 52.5t-21.5 52.5t-52.5 21.5t-52.5 -21.5t-21.5 -52.5zM303 993q0 -31 21.5 -52t52.5 -21t52.5 21t21.5 52t-21.5 52.5t-52.5 21.5t-52.5 -21.5t-21.5 -52.5z" />
<glyph unicode="&#xf8;" horiz-adv-x="1146" d="M74 530q0 -215 130 -380q40 -50 89 -82l-68 -113h90l41 72q106 -50 223 -50t210.5 47.5t156.5 123.5q129 155 129 382q0 129 -46 243t-130 190l96 163h-90l-67 -114q-131 73 -257.5 73t-220.5 -47t-158 -124q-128 -157 -128 -384zM158 544.5q0 73.5 25.5 157.5t77.5 151 t131 107.5t197.5 40.5t207.5 -63l-463 -801q-130 94 -165 277q-11 57 -11 130.5zM399 98l457 793q137 -141 137 -361q0 -188 -105 -322q-115 -147 -313 -147q-100 0 -176 37z" />
<glyph unicode="&#xf9;" horiz-adv-x="1181" d="M86 983h125v-655q0 -172 95 -262.5t278.5 -90.5t281.5 136v-111h209v74h-125v981h-209v-72h125v-711q0 -14 -17.5 -49t-52.5 -71q-90 -93 -217.5 -93t-205.5 63.5t-78 223.5v709h-209v-72zM319 1491l259 -256l57 59l-254 256z" />
<glyph unicode="&#xfa;" horiz-adv-x="1181" d="M86 983h125v-655q0 -172 95 -262.5t278.5 -90.5t281.5 136v-111h209v74h-125v981h-209v-72h125v-711q0 -14 -17.5 -49t-52.5 -71q-90 -93 -217.5 -93t-205.5 63.5t-78 223.5v709h-209v-72zM483 1294l58 -59l258 256l-62 59z" />
<glyph unicode="&#xfb;" horiz-adv-x="1181" d="M86 983h125v-655q0 -172 95 -262.5t278.5 -90.5t281.5 136v-111h209v74h-125v981h-209v-72h125v-711q0 -14 -17.5 -49t-52.5 -71q-90 -93 -217.5 -93t-205.5 63.5t-78 223.5v709h-209v-72zM295 1262l47 -45l217 215l217 -215l45 47l-237 241h-49z" />
<glyph unicode="&#xfc;" horiz-adv-x="1181" d="M86 983h125v-655q0 -172 95 -262.5t278.5 -90.5t281.5 136v-111h209v74h-125v981h-209v-72h125v-711q0 -14 -17.5 -49t-52.5 -71q-90 -93 -217.5 -93t-205.5 63.5t-78 223.5v709h-209v-72zM360 1350q0 -29 18.5 -47.5t47.5 -18.5t47.5 18.5t18.5 47.5t-18.5 47t-47.5 18 t-47.5 -18.5t-18.5 -46.5zM643 1350q0 -29 18.5 -47.5t47.5 -18.5t47 18.5t18 47.5t-18.5 47t-46.5 18q-29 0 -47.5 -18.5t-18.5 -46.5z" />
<glyph unicode="&#xfd;" horiz-adv-x="1157" d="M70 983h129l350 -864l-180 -461h-136v-74h353v74h-131l526 1325h109v72h-316v-72h119l-295 -752l-305 752h131v72h-354v-72zM557 1294l59 -59l256 256l-59 59z" />
<glyph unicode="&#xfe;" horiz-adv-x="1189" d="M57 -295v-74h334v74h-125v500q79 -154 244 -207q63 -21 164.5 -21t189.5 47.5t146 125.5q116 153 116 382q0 228 -116 382q-129 171 -355 171q-147 0 -255 -75q-88 -60 -134 -160v612h125v74h-334v-74h125v-1757h-125zM266 532q0 197 92 324q105 145 289 145t294 -145 q101 -132 101 -324q0 -194 -95 -324q-108 -147 -292 -147q-179 0 -291 147q-98 131 -98 324z" />
<glyph unicode="&#xff;" horiz-adv-x="1157" d="M70 983h129l350 -864l-180 -461h-136v-74h353v74h-131l526 1325h109v72h-316v-72h119l-295 -752l-305 752h131v72h-354v-72zM389 1350q0 -29 18.5 -47.5t47.5 -18.5t47 18.5t18 47.5t-18.5 47t-46.5 18q-29 0 -47.5 -18.5t-18.5 -46.5zM672 1350q0 -29 18.5 -47.5 t46.5 -18.5q29 0 47.5 18.5t18.5 47.5t-18.5 47t-47.5 18t-47 -18.5t-18 -46.5z" />
<glyph unicode="&#x152;" horiz-adv-x="2281" d="M78 729q0 -156 59.5 -292t160.5 -237.5t237.5 -160.5t267 -59t228 27.5t182.5 78.5q170 102 272 281v-281h-156v-86h858v246h-84v-160h-520v684h393v-104h80v295h-80v-105h-393v520h520v-153h84v239h-858v-86h156v-284q-155 273 -454 359q-97 28 -228.5 28t-267.5 -59.5 t-237 -161t-160.5 -237.5t-59.5 -292zM176 730q0 134 51.5 252t140.5 207t207.5 140t252.5 51t253 -51t208 -140q192 -192 192 -460q0 -133 -51.5 -252t-140.5 -208t-208 -140t-253 -51t-252.5 51t-207.5 140t-140.5 208t-51.5 253z" />
<glyph unicode="&#x153;" horiz-adv-x="2027" d="M74 530q0 -227 128 -382q64 -76 158 -123.5t196.5 -47.5t173.5 24t127 65q112 80 165 210q87 -212 286 -280q72 -25 164 -25t166 21.5t128 56.5q81 53 155 168l-72 47q-67 -97 -123 -134q-112 -75 -262 -75q-173 0 -282 145q-103 138 -103 318h883q2 14 2 29v35 q0 194 -136 342q-146 159 -362 159q-154 0 -267.5 -84t-174.5 -217q-94 213 -294 280q-71 23 -173.5 23t-196.5 -47t-158 -124q-128 -157 -128 -384zM158 530q0 190 103 323q115 148 314 148q198 0 313 -148q105 -135 105 -323t-105 -322q-115 -147 -313 -147 q-199 0 -314 147q-103 131 -103 322zM1085 602q4 146 107 266q111 131 274 131q168 0 283 -131q107 -123 115 -266h-779z" />
<glyph unicode="&#x178;" horiz-adv-x="1165" d="M61 1376h113l361 -635v-655h-115v-86h328v86h-115v655l360 635h117v86h-309v-86h94l-311 -555l-312 555h97v86h-308v-86zM375 1632q0 -29 18.5 -47t46.5 -18q29 0 47.5 18t18.5 47t-18.5 47.5t-47.5 18.5t-47 -18.5t-18 -47.5zM657 1632q0 -29 18.5 -47t47.5 -18t47 18 t18 47t-18 47.5t-47 18.5t-47.5 -18.5t-18.5 -47.5z" />
<glyph unicode="&#x2c6;" horiz-adv-x="720" d="M100 1262l47 -45l220 215l215 -215l45 47l-238 241h-49z" />
<glyph unicode="&#x2dc;" horiz-adv-x="886" d="M117 1298l57 -47q16 20 46 45t81 25t74.5 -13.5t51.5 -32.5t61.5 -35.5t100.5 -16.5t111.5 32.5t73.5 63.5l-59 45q-18 -18 -47 -38.5t-76 -20.5t-76 15t-58 34q-70 49 -128 49t-90.5 -11.5t-57.5 -26.5q-31 -19 -65 -67z" />
<glyph unicode="&#x2000;" horiz-adv-x="918" />
<glyph unicode="&#x2001;" horiz-adv-x="1837" />
<glyph unicode="&#x2002;" horiz-adv-x="918" />
<glyph unicode="&#x2003;" horiz-adv-x="1837" />
<glyph unicode="&#x2004;" horiz-adv-x="612" />
<glyph unicode="&#x2005;" horiz-adv-x="459" />
<glyph unicode="&#x2006;" horiz-adv-x="306" />
<glyph unicode="&#x2007;" horiz-adv-x="306" />
<glyph unicode="&#x2008;" horiz-adv-x="229" />
<glyph unicode="&#x2009;" horiz-adv-x="367" />
<glyph unicode="&#x200a;" horiz-adv-x="102" />
<glyph unicode="&#x2010;" horiz-adv-x="632" d="M106 719h422v84h-422v-84z" />
<glyph unicode="&#x2011;" horiz-adv-x="632" d="M106 719h422v84h-422v-84z" />
<glyph unicode="&#x2012;" horiz-adv-x="632" d="M106 719h422v84h-422v-84z" />
<glyph unicode="&#x2013;" horiz-adv-x="845" d="M86 510h678v84h-678v-84z" />
<glyph unicode="&#x2014;" horiz-adv-x="1724" d="M127 510h1475v84h-1475v-84z" />
<glyph unicode="&#x2018;" horiz-adv-x="333" d="M100 1110h125v145h-67v101q0 70 37 135h-60q-35 -67 -35 -135v-246z" />
<glyph unicode="&#x2019;" horiz-adv-x="372" d="M141 1364h68v-100q0 -65 -37 -136h59q35 67 35 136v245h-125v-145z" />
<glyph unicode="&#x201a;" horiz-adv-x="376" d="M141 184h68v-100q0 -67 -37 -135h59q35 67 35 135v246h-125v-146z" />
<glyph unicode="&#x201c;" horiz-adv-x="585" d="M100 1110h125v145h-67v101q0 70 37 135h-60q-35 -67 -35 -135v-246zM365 1110h124v145h-67v101q0 70 37 135h-60q-34 -65 -34 -135v-246z" />
<glyph unicode="&#x201d;" horiz-adv-x="616" d="M121 1364h67v-100q0 -67 -36 -136h59q35 67 35 136v245h-125v-145zM385 1364h68v-100q0 -65 -37 -136h59q35 67 35 136v245h-125v-145z" />
<glyph unicode="&#x201e;" horiz-adv-x="616" d="M133 184h68v-100q0 -67 -37 -135h59q35 67 35 135v246h-125v-146zM397 184h68v-100q0 -67 -37 -135h59q35 67 35 135v246h-125v-146z" />
<glyph unicode="&#x2022;" horiz-adv-x="679" d="M86 608q0 -104 75 -179t179 -75q103 0 180 75q76 74 76 178q0 52 -20.5 99.5t-55.5 81.5q-78 74 -180 74q-103 0 -179 -74q-75 -74 -75 -180z" />
<glyph unicode="&#x2026;" horiz-adv-x="948" d="M96 66q0 -31 21.5 -52.5t52.5 -21.5t52.5 21.5t21.5 52.5t-21.5 52t-52.5 21t-52.5 -21.5t-21.5 -51.5zM418 66q0 -31 21.5 -52.5t52.5 -21.5t52 21.5t21 52.5t-21.5 52t-51.5 21q-31 0 -52.5 -21.5t-21.5 -51.5zM739 66q0 -31 21.5 -52.5t52.5 -21.5t52.5 21.5 t21.5 52.5t-21.5 52t-52.5 21t-52.5 -21.5t-21.5 -51.5z" />
<glyph unicode="&#x202f;" horiz-adv-x="367" />
<glyph unicode="&#x2039;" horiz-adv-x="593" d="M63 526l381 -383l37 37l-348 346l350 351l-37 34z" />
<glyph unicode="&#x203a;" horiz-adv-x="593" d="M100 879l351 -353l-349 -348l35 -37l385 385l-387 387z" />
<glyph unicode="&#x205f;" horiz-adv-x="459" />
<glyph unicode="&#x2122;" horiz-adv-x="690" d="M80 1434h104v-316h15v316h104v12h-223v-12zM293 1120h14l62 283l102 -299l102 299l58 -283h14l-67 330l-107 -303l-104 303z" />
<glyph unicode="&#xe000;" horiz-adv-x="1054" d="M0 0v1055h1055v-1055h-1055z" />
<glyph unicode="&#xfb01;" horiz-adv-x="872" d="M53 0h334v74h-125v909h367v-909h-125v-74h334v74h-125v981h-451v223q0 78 51.5 121t132 43t132 -41t51.5 -123v-109h84v117q0 104 -72 169t-197 65q-108 0 -186 -63q-80 -65 -80 -171v-231h-115v-72h115v-909h-125v-74z" />
<glyph unicode="&#xfb02;" horiz-adv-x="872" d="M53 0h334v74h-125v909h197v72h-197v225q0 80 51.5 122t132 42t132 -41t51.5 -123v-1206h-125v-74h334v74h-125v1212q0 104 -72 169t-197 65q-108 0 -186 -63q-80 -65 -80 -171v-231h-115v-72h115v-909h-125v-74z" />
</font>
</defs>
</svg>
